<svg
  xmlns:dc="http://purl.org/dc/elements/1.1/"
  xmlns:cc="http://creativecommons.org/ns#"
  xmlns:rdf="http://www.w3.org/1999/02/22-rdf-syntax-ns#"
  xmlns:svg="http://www.w3.org/2000/svg"
  xmlns="http://www.w3.org/2000/svg"
  xmlns:xlink="http://www.w3.org/1999/xlink"
  id="svg905"
  viewBox="0 0 1024 768"
  height="768px"
  width="1024px"
  version="1.1"
  style="background: rgb(200, 101, 16)"
>
  <g
    id="title"
    style="font-style:normal;font-weight:700;font-size:72px;line-height:1;font-family:'Brandmark1 Bold';font-variant-ligatures:normal;text-align:center;text-anchor:middle"
    transform="translate(0 0)"
  >
    <path
      id="path946"
      style="font-style:normal;font-weight:700;font-size:72px;line-height:1;font-family:'Brandmark1 Bold';font-variant-ligatures:normal;text-align:center;text-anchor:middle"
      d="m 484.45887,-31.608 c -3.45599,-3.384 -7.99199,-5.256 -12.816,-5.256 -2.59199,0 -5.04,0.504 -7.272,1.512 v -2.664 h -10.8 v 17.64 c -0.072,0.576 -0.072,1.08 -0.072,1.656 h 0.072 V 2.52 h 10.8 V -19.8 c 0.504,-3.528 3.528,-6.264 7.272,-6.264 4.032,0 7.344,3.312 7.344,7.344 V 2.52 h 10.8 v -21.24 c 0,-4.896 -1.944,-9.432 -5.328,-12.888 z"
      stroke-width="0"
      stroke-linejoin="miter"
      stroke-miterlimit="2"
      fill="#ffffff"
      stroke="#ffffff"
      transform="translate(0 311.6592) translate(329.39114524999997 -19.278399999999984) scale(3.15) translate(-453.49887 38.016)"
    />
    <path
      id="path948"
      style="font-style:normal;font-weight:700;font-size:72px;line-height:1;font-family:'Brandmark1 Bold';font-variant-ligatures:normal;text-align:center;text-anchor:middle"
      d="m 495.41525,2.52 h 10.872 v -41.544 l -10.872,3.6 z"
      stroke-width="0"
      stroke-linejoin="miter"
      stroke-miterlimit="2"
      fill="#ffffff"
      stroke="#ffffff"
      transform="translate(0 311.6592) translate(455.1277422499999 -22.4536) scale(3.15) translate(-495.41525 39.024)"
    />
    <path
      id="path950"
      style="font-style:normal;font-weight:700;font-size:72px;line-height:1;font-family:'Brandmark1 Bold';font-variant-ligatures:normal;text-align:center;text-anchor:middle"
      d="m 535.60137,-27.504 v -10.08 h -11.448 v -12.888 l -10.79999,3.6 v 27.936 c 0,3.024 0.576,5.904 1.72799,8.64 1.08001,2.664 2.736,5.04 4.75201,7.056 2.01599,2.088 4.39199,3.672 7.05599,4.824 2.736,1.152 5.688,1.728 8.712,1.728 v -10.8 c -6.336,0 -11.448,-5.112 -11.448,-11.448 v -8.568 z"
      stroke-width="0"
      stroke-linejoin="miter"
      stroke-miterlimit="2"
      fill="#ffffff"
      stroke="#ffffff"
      transform="translate(0 311.6592) translate(505.3328517499999 -58.51479999999999) scale(3.15) translate(-513.35338 50.472)"
    />
    <path
      id="path952"
      style="font-style:normal;font-weight:700;font-size:72px;line-height:1;font-family:'Brandmark1 Bold';font-variant-ligatures:normal;text-align:center;text-anchor:middle"
      d="m 542.105,16.776 h 11.448 l 21.888,-54.36 h -11.52 l -9.072,22.752 -9.648,-22.752 h -11.88 l 16.056,36.288 z"
      stroke-width="0"
      stroke-linejoin="miter"
      stroke-miterlimit="2"
      fill="#ffffff"
      stroke="#ffffff"
      transform="translate(0 311.6592) translate(561.9308547500001 -17.9176) scale(3.15) translate(-533.321 37.584)"
    />
  </g>
</svg>
